<?xml version="1.0" standalone="no"?>
<!DOCTYPE svg PUBLIC "-//W3C//DTD SVG 20010904//EN"
 "http://www.w3.org/TR/2001/REC-SVG-20010904/DTD/svg10.dtd">
<svg version="1.0" xmlns="http://www.w3.org/2000/svg"
 width="1280.000000pt" height="1040.000000pt" viewBox="0 0 1280.000000 1040.000000"
 preserveAspectRatio="xMidYMid meet">
<metadata>
Created by potrace 1.15, written by Peter Selinger 2001-2017
</metadata>
<g transform="translate(0.000000,1040.000000) scale(0.100000,-0.100000)"
fill="#000000" stroke="none">
<path d="M1573 10326 c-131 -99 -358 -310 -479 -443 -271 -300 -559 -756 -710
-1125 -188 -460 -329 -1367 -229 -1478 8 -9 15 -24 15 -33 0 -35 101 -209 212
-367 233 -332 463 -730 698 -1213 230 -473 282 -622 364 -1058 74 -389 99
-604 116 -989 9 -218 12 -1027 3 -969 l-4 26 -62 -19 c-358 -109 -502 -168
-613 -250 -172 -129 -207 -269 -92 -378 51 -48 81 -65 378 -208 182 -88 298
-161 353 -221 l36 -40 4 32 c4 36 7 -199 10 -817 l2 -420 30 -9 c17 -5 118
-11 226 -14 l196 -5 33 29 33 29 2 238 c2 130 6 240 9 243 3 4 6 -5 6 -18 0
-41 57 91 121 280 67 198 100 275 158 359 174 256 462 293 1141 146 263 -57
536 -130 785 -211 144 -47 455 -156 490 -172 11 -5 74 -31 140 -56 66 -26 134
-53 150 -60 83 -37 685 -275 809 -321 266 -99 662 -218 750 -228 12 -1 54 -19
94 -39 142 -73 326 -97 742 -97 388 0 608 21 1003 96 114 21 205 33 227 30 22
-4 28 -3 15 3 -16 7 -14 9 14 14 47 10 72 7 41 -4 -37 -13 166 -5 925 36 154
9 404 25 555 35 1050 77 1397 122 1553 201 64 32 78 43 95 76 41 75 -39 141
-203 168 -16 3 -52 10 -80 15 -53 10 -239 24 -465 37 -149 9 -141 9 -190 -1
-19 -4 12 11 69 34 259 100 659 286 870 404 130 74 169 112 198 196 47 135 56
203 57 435 1 257 -4 288 -74 433 -38 77 -67 120 -118 173 -134 143 -238 199
-465 250 -174 39 -253 51 -592 89 -441 50 -650 97 -1379 307 -710 205 -754
215 -1166 272 -462 65 -844 275 -1410 775 -367 325 -678 666 -1540 1691 -881
1048 -1022 1208 -1525 1730 -563 585 -837 890 -1058 1180 -89 117 -226 283
-553 670 -88 105 -200 240 -248 300 -88 109 -204 235 -217 235 -4 0 -30 16
-59 35 -29 19 -63 35 -76 35 -13 0 -64 -31 -121 -74z m1078 -4645 c95 -27 167
-65 271 -144 212 -160 385 -321 648 -602 509 -545 856 -1017 1417 -1930 210
-342 362 -586 537 -863 78 -125 153 -245 165 -267 l23 -40 -25 30 c-15 17 -26
27 -27 23 0 -3 -21 1 -47 9 -105 32 -448 131 -688 198 -153 43 -551 148 -815
215 -239 61 -525 138 -660 179 -52 16 -129 39 -170 51 -41 12 -86 25 -100 30
-49 18 -457 139 -550 163 -52 14 -129 31 -170 38 -85 14 -279 18 -327 7 l-33
-7 0 277 c2 644 20 1958 30 2092 23 319 63 452 152 504 94 56 248 72 369 37z
m8642 -3888 c-7 -2 -19 -2 -25 0 -7 3 -2 5 12 5 14 0 19 -2 13 -5z m-140 -10
c-7 -2 -21 -2 -30 0 -10 3 -4 5 12 5 17 0 24 -2 18 -5z m-4502 -1180 c13 -16
12 -17 -3 -4 -17 13 -22 21 -14 21 2 0 10 -8 17 -17z"/>
</g>
</svg>
